<?xml version="1.0" encoding="utf-8"?>
<!-- Generator: Adobe Illustrator 21.0.0, SVG Export Plug-In . SVG Version: 6.00 Build 0)  -->
<svg version="1.1" id="Layer_1" xmlns="http://www.w3.org/2000/svg" xmlns:xlink="http://www.w3.org/1999/xlink" x="0px" y="0px"
	 viewBox="0 0 8.4 7.5" style="enable-background:new 0 0 8.4 7.5;" xml:space="preserve">
<style type="text/css">
	.st0{fill:#9BA7AE;}
</style>
<path class="st0" d="M4.3,7.3c-0.1,0-0.1,0-0.2,0c0,0,0,0,0,0L4,7.1C3.7,6.9,3.1,6.5,2.7,6.2C1.2,5,0.5,4.2,0.3,3.5
	C0.3,3.3,0.2,3.1,0.2,2.8c0-0.7,0.3-1.4,0.7-1.9c0.4-0.4,1-0.7,1.6-0.7h0c0.7,0,1.3,0.3,1.7,0.7c0.4-0.5,1-0.8,1.7-0.8h0
	c1.2,0,2.3,1.1,2.3,2.5c0,0.3,0,0.5-0.1,0.8C8,4.1,7.2,5,5.8,6.2c-0.6,0.5-1,0.8-1.3,1C4.4,7.2,4.3,7.3,4.3,7.3L4.3,7.3z"/>
</svg>
