<?xml version="1.0" encoding="utf-8"?>
<!-- Generator: Adobe Illustrator 21.0.0, SVG Export Plug-In . SVG Version: 6.00 Build 0)  -->
<svg version="1.1" id="Layer_1" xmlns="http://www.w3.org/2000/svg" xmlns:xlink="http://www.w3.org/1999/xlink" x="0px" y="0px"
	 viewBox="0 0 49.9 49.9" style="enable-background:new 0 0 49.9 49.9;" xml:space="preserve">
<style type="text/css">
	.st0{fill:#FFFFFF;stroke:#6FD0EB;stroke-width:4;}
	.st1{fill:#6FD0EB;}
</style>
<path class="st0" d="M25,2.5c12.4,0,22.5,10.1,22.5,22.5S37.4,47.5,25,47.5S2.5,37.4,2.5,25S12.6,2.5,25,2.5z"/>
<path class="st1" d="M36.4,26.8v5.9c0.5,0.2,0.8,0.7,0.8,1.2c0,0.7-0.7,1.4-1.5,1.4c-0.8,0-1.5-0.6-1.5-1.4c0-0.5,0.3-1,0.8-1.2
	v-5.9c-0.5-0.2-0.8-0.7-0.8-1.2c0-0.7,0.7-1.4,1.5-1.4c0.8,0,1.5,0.6,1.5,1.4C37.3,26.1,36.9,26.6,36.4,26.8z M35.2,19.7
	c-0.2,0-0.3,0-0.4-0.1l-3.5,3.4v10.4l-3.4,3.1c0,0.1,0,0.2,0,0.3c0,0.7-0.7,1.4-1.5,1.4c-0.8,0-1.5-0.6-1.5-1.4s0.7-1.4,1.5-1.4
	c0.2,0,0.4,0,0.6,0.1l2.9-2.7V22.6l3.9-3.8c0-0.1-0.1-0.3-0.1-0.5c0-0.7,0.7-1.4,1.5-1.4s1.5,0.6,1.5,1.4
	C36.7,19.1,36,19.7,35.2,19.7z M31.3,14.4c-0.2,0-0.3,0-0.5-0.1L25.7,19v11.8l-5.4,5c0,0.1,0.1,0.3,0.1,0.4c0,0.7-0.7,1.4-1.5,1.4
	c-0.8,0-1.5-0.6-1.5-1.4c0-0.7,0.7-1.4,1.5-1.4c0.2,0,0.3,0,0.5,0.1l5.1-4.7V18.5l5.5-5c0-0.1-0.1-0.3-0.1-0.4
	c0-0.7,0.7-1.4,1.5-1.4s1.5,0.6,1.5,1.4C32.8,13.8,32.2,14.4,31.3,14.4z M24,14.4c-0.2,0-0.3,0-0.4-0.1L20,17.7v10.4l-3.4,3.1
	c0,0.1,0,0.2,0,0.3c0,0.7-0.7,1.4-1.5,1.4s-1.5-0.6-1.5-1.4c0-0.7,0.7-1.4,1.5-1.4c0.2,0,0.4,0,0.6,0.1l2.9-2.7V17.3l3.9-3.8
	c0-0.1-0.1-0.3-0.1-0.5c0-0.7,0.7-1.4,1.5-1.4c0.8,0,1.5,0.6,1.5,1.4C25.5,13.8,24.9,14.4,24,14.4z M14.4,17.6v6.7
	c0.5,0.2,0.8,0.7,0.8,1.2c0,0.7-0.7,1.4-1.5,1.4c-0.8,0-1.5-0.6-1.5-1.4c0-0.5,0.3-1,0.8-1.2v-6.7c-0.5-0.2-0.8-0.7-0.8-1.2
	c0-0.7,0.7-1.4,1.5-1.4c0.8,0,1.5,0.6,1.5,1.4C15.3,17,15,17.4,14.4,17.6z"/>
</svg>
