<?xml version="1.0" encoding="utf-8"?>
<!-- Generator: Adobe Illustrator 21.0.0, SVG Export Plug-In . SVG Version: 6.00 Build 0)  -->
<svg version="1.1" id="Layer_1" xmlns="http://www.w3.org/2000/svg" xmlns:xlink="http://www.w3.org/1999/xlink" x="0px" y="0px"
	 viewBox="0 0 49.9 49.9" style="enable-background:new 0 0 49.9 49.9;" xml:space="preserve">
<style type="text/css">
	.st0{fill:#FFFFFF;stroke:#E59A71;stroke-width:3.2;}
	.st1{fill:#E59A71;}
</style>
<path class="st0" d="M25,2.5c12.4,0,22.4,10,22.4,22.4c0,12.4-10,22.4-22.4,22.4S2.5,37.3,2.5,24.9C2.5,12.6,12.6,2.5,25,2.5z"/>
<path class="st1" d="M37.4,13.5c0,0.2-0.7,5.5-4.4,9.2c-0.6,0.6-2.1,2-3.8,3.5c0,0.1,0.1,0.1,0.1,0.2l1.3,5.8L28,34.9l-4.2-4.2
	c-0.2,0.1-0.3,0.2-0.5,0.3l-0.6,0.3l-4.2-4.2l0.3-0.6c0.1-0.1,0.2-0.3,0.3-0.5l-3.9-3.9l2.6-2.6l5.6,1.3c1.6-1.8,3.1-3.4,3.7-4
	c3.7-3.7,9-4.4,9.2-4.4l1.1-0.1L37.4,13.5z M28,32.4l0.7-0.7l-0.9-4.2c-0.9,0.8-1.7,1.5-2.5,2.1L28,32.4z M18.5,21.5l-0.7,0.7
	l2.4,2.4c0.5-0.7,1.2-1.5,1.9-2.3L18.5,21.5z M28.5,18.1c-1.8,1.8-6.3,6.7-7.6,8.6l2.3,2.3c1.9-1.3,6.9-5.8,8.6-7.6
	c2.3-2.3,3.3-5.3,3.7-7C33.8,14.9,30.7,15.9,28.5,18.1z M29.5,20.2c-0.5-0.5-0.5-1.3,0-1.8c0.5-0.5,1.3-0.5,1.8,0
	c0.5,0.5,0.5,1.3,0,1.8C30.8,20.7,30,20.7,29.5,20.2z M16.5,31.6l-2.9,2.9L13,33.9l2.9-2.9L16.5,31.6z M17.7,32.8L13,37.5l-0.6-0.6
	l4.7-4.7L17.7,32.8z M18.9,34l-1.7,1.7l-0.6-0.6l1.7-1.7L18.9,34z M17.9,28.3l3.6,3.6l-1.4,1.1l-3.4-3.4L17.9,28.3z"/>
</svg>
