<?xml version="1.0" encoding="utf-8"?>
<!-- Generator: Adobe Illustrator 21.0.0, SVG Export Plug-In . SVG Version: 6.00 Build 0)  -->
<svg version="1.1" id="Layer_1" xmlns="http://www.w3.org/2000/svg" xmlns:xlink="http://www.w3.org/1999/xlink" x="0px" y="0px"
	 viewBox="0 0 58 62" style="enable-background:new 0 0 58 62;" xml:space="preserve">
<style type="text/css">
	.st0{fill:#6FD0EB;}
</style>
<path class="st0" d="M55.8,34.9v13.5c1.1,0.5,1.9,1.6,1.9,2.8c0,1.7-1.5,3.1-3.4,3.1c-1.9,0-3.4-1.4-3.4-3.1c0-1.2,0.8-2.3,1.9-2.8
	V34.9c-1.1-0.5-1.9-1.6-1.9-2.8c0-1.7,1.5-3.1,3.4-3.1c1.9,0,3.4,1.4,3.4,3.1C57.8,33.3,57,34.4,55.8,34.9z M53,18.7
	c-0.4,0-0.7-0.1-1-0.2l-8.1,7.8v23.8l-7.7,7.1c0.1,0.2,0.1,0.5,0.1,0.7c0,1.7-1.5,3.1-3.4,3.1c-1.9,0-3.4-1.4-3.4-3.1
	s1.5-3.1,3.4-3.1c0.5,0,1,0.1,1.4,0.3l6.7-6.1V25.3l8.9-8.6c-0.1-0.3-0.2-0.7-0.2-1.1c0-1.7,1.5-3.1,3.4-3.1c1.9,0,3.4,1.4,3.4,3.1
	C56.4,17.3,54.9,18.7,53,18.7z M44.2,6.5c-0.4,0-0.8-0.1-1.1-0.2L31.4,17v26.9L19,55.3c0.1,0.3,0.2,0.7,0.2,1c0,1.7-1.5,3.1-3.4,3.1
	c-1.9,0-3.4-1.4-3.4-3.1c0-1.7,1.5-3.1,3.4-3.1c0.4,0,0.8,0.1,1.1,0.2l11.6-10.7V15.8L41,4.3c-0.1-0.3-0.2-0.6-0.2-1
	c0-1.7,1.5-3.1,3.4-3.1c1.9,0,3.4,1.4,3.4,3.1C47.6,5.1,46.1,6.5,44.2,6.5z M27.5,6.5c-0.4,0-0.7-0.1-1-0.2l-8.1,7.8v23.8L10.7,45
	c0.1,0.2,0.1,0.5,0.1,0.8c0,1.7-1.5,3.1-3.4,3.1S4,47.5,4,45.8c0-1.7,1.5-3.1,3.4-3.1c0.5,0,1,0.1,1.4,0.3l6.7-6.2V13l8.9-8.6
	c-0.1-0.3-0.2-0.7-0.2-1.1c0-1.7,1.5-3.1,3.4-3.1c1.9,0,3.4,1.4,3.4,3.1C30.9,5.1,29.4,6.5,27.5,6.5z M5.6,13.9v15.3
	c1.1,0.5,1.9,1.6,1.9,2.8c0,1.7-1.5,3.1-3.4,3.1c-1.9,0-3.4-1.4-3.4-3.1c0-1.2,0.8-2.3,1.9-2.8V13.9c-1.1-0.5-1.9-1.6-1.9-2.8
	C0.7,9.4,2.3,8,4.2,8c1.9,0,3.4,1.4,3.4,3.1C7.6,12.4,6.8,13.4,5.6,13.9z"/>
</svg>
