<?xml version="1.0" encoding="utf-8"?>
<!-- Generator: Adobe Illustrator 21.0.0, SVG Export Plug-In . SVG Version: 6.00 Build 0)  -->
<svg version="1.1" id="Layer_1" xmlns="http://www.w3.org/2000/svg" xmlns:xlink="http://www.w3.org/1999/xlink" x="0px" y="0px"
	 viewBox="0 0 49.9 49.9" style="enable-background:new 0 0 49.9 49.9;" xml:space="preserve">
<style type="text/css">
	.st0{fill:#FFFFFF;stroke:#BEC9D0;stroke-width:4;}
	.st1{fill:#AAB3B9;}
</style>
<path class="st0" d="M25,2.5c12.4,0,22.5,10.1,22.5,22.5S37.4,47.5,25,47.5S2.5,37.4,2.5,25S12.6,2.5,25,2.5z"/>
<path class="st1" d="M32.4,26.8v-1.5h2.8v1.5H32.4z M25,27.7L20.9,24l1.7-1.9l2.4,2.2l6.4-6.4l0.9,0.9l0.5,0.5l0,0l0.4,0.4L25,27.7z
	 M24.3,15.8h1.5v2.8h-1.5V15.8z M17.2,32.7l2-2l1.1,1.1l-2,2L17.2,32.7z M17.2,19.3l1.1-1.1l2,2l-1.1,1.1L17.2,19.3z M17.6,26.8
	h-2.8v-1.5h2.8V26.8z M25.7,36.3h-1.5v-2.8h1.5V36.3z M32.8,32.7l-1.1,1.1l-2-2l1.1-1.1L32.8,32.7z"/>
</svg>
