<?xml version="1.0" encoding="utf-8"?>
<!-- Generator: Adobe Illustrator 21.0.0, SVG Export Plug-In . SVG Version: 6.00 Build 0)  -->
<svg version="1.1" id="Layer_1" xmlns="http://www.w3.org/2000/svg" xmlns:xlink="http://www.w3.org/1999/xlink" x="0px" y="0px"
	 viewBox="0 0 69 69" style="enable-background:new 0 0 69 69;" xml:space="preserve">
<style type="text/css">
	.st0{fill:#E59A71;}
</style>
<path class="st0" d="M68.6,3c-0.1,0.6-1.9,15.1-12.1,25.3c-1.6,1.6-5.8,5.6-10.4,9.7c0.1,0.2,0.2,0.4,0.2,0.6l3.6,16l-7.1,7.1
	L31.4,50.3c-0.5,0.3-0.9,0.6-1.3,0.7l-1.6,0.8L17.2,40.4l0.8-1.6c0.2-0.4,0.4-0.8,0.7-1.3L8.1,27l7.1-7.1l15.3,3.5
	c4.3-4.8,8.5-9.2,10.2-10.9C50.9,2.2,65.3,0.4,66,0.4L69,0L68.6,3z M42.9,54.9l1.8-1.8l-2.6-11.4c-2.4,2.1-4.7,4.1-6.7,5.7
	L42.9,54.9z M16.8,25.1L15,27l6.7,6.7c1.5-1.9,3.3-4,5.2-6.2L16.8,25.1z M44.1,15.8c-4.9,4.9-17.2,18.4-20.9,23.7l6.2,6.2
	c5.3-3.7,18.8-16,23.7-20.9c6.3-6.3,9-14.5,10-19.1C58.6,6.9,50.3,9.6,44.1,15.8z M47,21.5c-1.3-1.3-1.3-3.5,0-4.9
	c1.3-1.3,3.5-1.3,4.9,0c1.3,1.3,1.3,3.5,0,4.9C50.5,22.8,48.3,22.8,47,21.5z M11.4,52.8l-8.1,8.1l-1.7-1.7l8.1-8.1L11.4,52.8z
	 M14.7,56l-13,13L0,67.3l13-13L14.7,56z M17.9,59.3l-4.6,4.6l-1.7-1.7l4.6-4.6L17.9,59.3z M15.1,43.8l9.9,9.9l-3.8,3.1L12,47.6
	L15.1,43.8z"/>
</svg>
