<?xml version="1.0" encoding="utf-8"?>
<!-- Generator: Adobe Illustrator 21.0.0, SVG Export Plug-In . SVG Version: 6.00 Build 0)  -->
<svg version="1.1" id="Layer_1" xmlns="http://www.w3.org/2000/svg" xmlns:xlink="http://www.w3.org/1999/xlink" x="0px" y="0px"
	 viewBox="0 0 25 37" style="enable-background:new 0 0 25 37;" xml:space="preserve">
<style type="text/css">
	.st0{fill:#6F828D;}
</style>
<path class="st0" d="M21.1,28.3v7.9l-9.3-7.9H0.5V9.4l12-8.6l11.9,8.6l0.1,19H21.1z M21.5,10.9l-9-6.5l-9,6.5v14.4h9.4l5.2,4.4v-4.4
	h3.4L21.5,10.9z M15.3,20.6h2v1.5h-2V20.6z M11.3,17.1h6v1.5h-6V17.1z M7.3,13.6h4.6v1.5H7.3V13.6z M9.3,18.6h-2v-1.5h2V18.6z
	 M13.3,22.1h-6v-1.5h6V22.1z"/>
</svg>
