<svg xmlns="http://www.w3.org/2000/svg" width="610.031" height="255.094" viewBox="0 0 610.031 255.094">
  <metadata><?xpacket begin="﻿" id="W5M0MpCehiHzreSzNTczkc9d"?>
<x:xmpmeta xmlns:x="adobe:ns:meta/" x:xmptk="Adobe XMP Core 5.6-c138 79.159824, 2016/09/14-01:09:01        ">
   <rdf:RDF xmlns:rdf="http://www.w3.org/1999/02/22-rdf-syntax-ns#">
      <rdf:Description rdf:about=""/>
   </rdf:RDF>
</x:xmpmeta>
                                                                                                    
                                                                                                    
                                                                                                    
                                                                                                    
                                                                                                    
                                                                                                    
                                                                                                    
                                                                                                    
                                                                                                    
                                                                                                    
                                                                                                    
                                                                                                    
                                                                                                    
                                                                                                    
                                                                                                    
                                                                                                    
                                                                                                    
                                                                                                    
                                                                                                    
                                                                                                    
                           
<?xpacket end="w"?></metadata>
<defs>
    <style>
      .cls-1 {
        fill-rule: evenodd;
      }
    </style>
  </defs>
  <path id="Logo" class="cls-1" d="M255.358,168.8H242.985V144.888l-7.139,12.34h-7.918l-7.139-12.34V168.8H208.417V118.875h12.159l11.311,22.015L243.2,118.875h12.159V168.8Zm58.532,0H279.674V118.875H313.89v10.938H292.047v8.344h18.662v10.937H292.047v8.765H313.89V168.8Zm62.208,0H365.281l-16.118-25.1v25.1H336.791V118.875h10.817l16.118,25.1v-25.1H376.1V168.8Zm58.461-38.983H422.19V168.8H409.817V129.813H397.448V118.875h37.111v10.938Zm56.624,14.021q0,3.788-.142,6.451a38.274,38.274,0,0,1-.423,4.278,16.138,16.138,0,0,1-4.526,9.044,20.628,20.628,0,0,1-28.133,0,16.145,16.145,0,0,1-4.527-9.044,37.569,37.569,0,0,1-.423-4.278q-0.139-2.665-.141-6.451t0.141-6.451a37.6,37.6,0,0,1,.423-4.275,16.129,16.129,0,0,1,4.527-9.044,20.438,20.438,0,0,1,28.133,0,16.122,16.122,0,0,1,4.526,9.044,38.31,38.31,0,0,1,.423,4.275Q491.181,140.049,491.183,143.834Zm-12.37,0a47.761,47.761,0,0,0-.567-9.183q-1.414-5.261-6.219-5.258-4.881,0-6.223,5.258a47.839,47.839,0,0,0-.564,9.183,48.562,48.562,0,0,0,.564,9.187q1.343,5.256,6.223,5.257,4.8,0,6.219-5.257A48.484,48.484,0,0,0,478.813,143.834ZM553.677,168.8H539.324l-8.906-18.582h-4.172V168.8H513.877V118.875H533.81a17.524,17.524,0,0,1,12.231,4.418,14.848,14.848,0,0,1,4.95,11.637q0,8.9-8.2,13.042ZM538.619,134.93a4.72,4.72,0,0,0-1.555-3.611,5.438,5.438,0,0,0-3.818-1.438h-7v10.1h7a5.42,5.42,0,0,0,3.818-1.438A4.714,4.714,0,0,0,538.619,134.93ZM249.49,255.675H236.553l-2.333-7.433H218.739l-2.474,7.433H203.328l18.309-49.92h9.544Zm-18.521-17.668-4.243-13.322L222.2,238.007h8.766Zm73.59,1.822q-1.272,7.784-6.221,11.988t-12.866,4.21a19.072,19.072,0,0,1-14-5.54,16.14,16.14,0,0,1-4.525-9.044,37.294,37.294,0,0,1-.425-4.278q-0.141-2.665-.141-6.452t0.141-6.451a37.258,37.258,0,0,1,.425-4.274,16.114,16.114,0,0,1,4.525-9.044,19.092,19.092,0,0,1,14-5.612q7.917,0,12.866,4.242t6.221,12.024H291.976q-1.485-5.327-6.434-5.326a5.662,5.662,0,0,0-4.877,2.1q-1.91,2.456-1.909,12.339,0,9.959,1.909,12.34a5.664,5.664,0,0,0,4.877,2.1q4.949,0,6.434-5.329h12.583Zm61,15.846H352.626l-2.329-7.433H334.816l-2.475,7.433H319.4l18.308-49.92h9.542Zm-18.519-17.668-4.238-13.322-4.527,13.322h8.765Zm75.215-7.294a81.609,81.609,0,0,1-.424,10.8,15.683,15.683,0,0,1-6.363,10.589,19.79,19.79,0,0,1-12.018,3.575h-18.66v-49.92h18.66a19.77,19.77,0,0,1,12.018,3.575,15.677,15.677,0,0,1,6.363,10.586A82.661,82.661,0,0,1,422.259,230.713Zm-12.369,0q0-9.252-1.345-11.216a6.678,6.678,0,0,0-5.937-2.805h-5.445v28.046h5.445a6.679,6.679,0,0,0,5.937-2.8,13.07,13.07,0,0,0,1.345-5.469v-5.752Zm69.277,24.962H444.953v-49.92h34.214v10.937H457.322v8.344h18.664v10.938H457.322v8.764h21.845v10.937Zm69.84,0h-12.37V231.768l-7.14,12.339h-7.918l-7.141-12.339v23.907H502.069v-49.92h12.159l11.31,22.014,11.31-22.014h12.159v49.92Zm62-49.92-15.2,29.588v20.332H583.437V235.343l-15.2-29.588h13.5l7.918,17.948,7.849-17.948h13.5ZM128.02,217.014L70.841,168.65H0.972V53.442l74.046-52.5,73.747,52.5L149.19,168.9H128.02v48.111ZM19.413,150.36H77.637l31.941,27.019V150.613h21.1l-0.324-87.761L75,23.437,19.413,62.849V150.36Zm24.48-33.666M71.549,88.222H43.119V79.077h28.43v9.145ZM55.413,109.561H43.119v-9.146H55.413v9.146Zm49.177,0.012H67.708v-9.146H104.59v9.146ZM80,130.926H43.119v-9.145H80v9.145Zm24.588,0H92.3v-9.145H104.59v9.145Z" transform="translate(-0.969 -0.938)"/>
</svg>
