<?xml version="1.0" encoding="utf-8"?>
<!-- Generator: Adobe Illustrator 21.0.0, SVG Export Plug-In . SVG Version: 6.00 Build 0)  -->
<svg version="1.1" id="Warstwa_1" xmlns="http://www.w3.org/2000/svg" xmlns:xlink="http://www.w3.org/1999/xlink" x="0px" y="0px"
	 viewBox="0 0 200 95.5" style="enable-background:new 0 0 200 95.5;" xml:space="preserve">
<g>
	<polygon points="79.7,51.5 76.1,44.6 72.4,44.6 72.4,60.2 76.2,60.2 76.2,52.8 78.4,56.6 80.9,56.6 83.1,52.8 83.1,60.2 87,60.2 
		87,44.6 83.2,44.6 	"/>
	<polygon points="103.7,56.8 96.9,56.8 96.9,54.1 102.7,54.1 102.7,50.6 96.9,50.6 96.9,48 103.7,48 103.7,44.6 93.1,44.6 
		93.1,60.2 103.7,60.2 	"/>
	<polygon points="117.8,52.5 112.8,44.6 109.4,44.6 109.4,60.2 113.3,60.2 113.3,52.4 118.3,60.2 121.6,60.2 121.6,44.6 117.8,44.6 
			"/>
	<polygon points="126.8,48 130.7,48 130.7,60.2 134.5,60.2 134.5,48 138.4,48 138.4,44.6 126.8,44.6 	"/>
	<path d="M154.1,49.1c-0.2-1.1-0.7-2.1-1.4-2.8c-1.2-1.2-2.6-1.8-4.4-1.8c-1.7,0-3.2,0.6-4.4,1.8c-0.7,0.7-1.2,1.7-1.4,2.8
		c-0.1,0.3-0.1,0.8-0.1,1.3c0,0.6,0,1.2,0,2s0,1.5,0,2c0,0.6,0.1,1,0.1,1.3c0.2,1.1,0.7,2.1,1.4,2.8c1.2,1.2,2.6,1.7,4.4,1.7
		s3.2-0.6,4.4-1.7c0.7-0.7,1.2-1.7,1.4-2.8c0.1-0.3,0.1-0.8,0.1-1.3c0-0.6,0-1.2,0-2s0-1.5,0-2C154.2,49.8,154.2,49.4,154.1,49.1z
		 M150.3,55.3c-0.3,1.1-0.9,1.6-1.9,1.6c-1,0-1.7-0.5-1.9-1.6c-0.1-0.5-0.2-1.5-0.2-2.9c0-1.4,0.1-2.4,0.2-2.9
		c0.3-1.1,0.9-1.6,1.9-1.6c1,0,1.6,0.5,1.9,1.6c0.1,0.5,0.2,1.5,0.2,2.9C150.5,53.8,150.4,54.8,150.3,55.3z"/>
	<path d="M171,49.6c0-1.5-0.5-2.7-1.5-3.6c-1-0.9-2.3-1.4-3.8-1.4h-6.2v15.6h3.8v-5.8h1.3l2.8,5.8h4.5l-3.4-6.5
		C170.2,52.9,171,51.5,171,49.6z M166.7,50.8c-0.3,0.3-0.7,0.5-1.2,0.5h-2.2V48h2.2c0.5,0,0.9,0.2,1.2,0.5c0.3,0.3,0.5,0.7,0.5,1.1
		C167.2,50.1,167,50.5,166.7,50.8z"/>
	<path d="M76.5,72.5l-5.7,15.6h4l0.8-2.3h4.8l0.7,2.3h4l-5.7-15.6H76.5z M76.7,82.6l1.4-4.2l1.3,4.2H76.7z"/>
	<path d="M94,75.8c1,0,1.7,0.6,2,1.7h3.9c-0.3-1.6-0.9-2.9-1.9-3.8c-1-0.9-2.4-1.3-4-1.3c-1.7,0-3.2,0.6-4.3,1.8
		c-0.7,0.7-1.2,1.7-1.4,2.8c-0.1,0.3-0.1,0.8-0.1,1.3c0,0.6,0,1.2,0,2c0,0.8,0,1.5,0,2c0,0.6,0.1,1,0.1,1.3c0.2,1.1,0.7,2.1,1.4,2.8
		c1.2,1.2,2.6,1.7,4.3,1.7c1.6,0,3-0.4,4-1.3s1.7-2.1,1.9-3.8H96c-0.3,1.1-1,1.7-2,1.7c-0.7,0-1.2-0.2-1.5-0.7
		c-0.4-0.5-0.6-1.8-0.6-3.9c0-2.1,0.2-3.4,0.6-3.9C92.8,76,93.3,75.8,94,75.8z"/>
	<path d="M108.8,72.5l-5.7,15.6h4l0.8-2.3h4.8l0.7,2.3h4l-5.7-15.6H108.8z M109,82.6l1.4-4.2l1.3,4.2H109z"/>
	<path d="M131.6,73.6c-1-0.7-2.3-1.1-3.7-1.1H122v15.6h5.8c1.5,0,2.7-0.4,3.7-1.1c1.1-0.8,1.7-1.9,2-3.3c0.1-0.5,0.1-1.6,0.1-3.4
		c0-1.7,0-2.9-0.1-3.4C133.3,75.5,132.6,74.4,131.6,73.6z M129.8,82.1c-0.1,0.8-0.2,1.4-0.4,1.7c-0.4,0.6-1,0.9-1.8,0.9h-1.7v-8.8
		h1.7c0.8,0,1.5,0.3,1.8,0.9c0.3,0.4,0.4,1.6,0.4,3.5V82.1z"/>
	<polygon points="139.3,88.1 149.9,88.1 149.9,84.7 143.1,84.7 143.1,81.9 148.9,81.9 148.9,78.5 143.1,78.5 143.1,75.9 149.9,75.9 
		149.9,72.5 139.3,72.5 	"/>
	<polygon points="162.9,79.4 159.4,72.5 155.6,72.5 155.6,88.1 159.5,88.1 159.5,80.6 161.7,84.5 164.1,84.5 166.3,80.6 166.3,88.1 
		170.2,88.1 170.2,72.5 166.4,72.5 	"/>
	<polygon points="183.8,72.5 181.4,78.1 178.9,72.5 174.7,72.5 179.5,81.7 179.5,88.1 183.3,88.1 183.3,81.7 188,72.5 	"/>
	<path d="M36.1,5.3L12,22.5v37.7h22.7l18.6,15.8V60.3h6.9l-0.1-37.8L36.1,5.3z M47.3,54.3v8.8l-10.4-8.9H18V25.6l18.1-12.9l18,12.9
		l0.1,28.8H47.3z"/>
	<rect x="25.7" y="30.9" width="9.2" height="3"/>
	<rect x="25.7" y="37.9" width="4" height="3"/>
	<rect x="33.7" y="37.9" width="12" height="3"/>
	<rect x="25.7" y="44.9" width="12" height="3"/>
	<rect x="41.7" y="44.9" width="4" height="3"/>
</g>
</svg>
