<?xml version="1.0" encoding="utf-8"?>
<!-- Generator: Adobe Illustrator 21.0.0, SVG Export Plug-In . SVG Version: 6.00 Build 0)  -->
<svg version="1.1" id="Layer_1" xmlns="http://www.w3.org/2000/svg" xmlns:xlink="http://www.w3.org/1999/xlink" x="0px" y="0px"
	 viewBox="0 0 168 62" style="enable-background:new 0 0 168 62;" xml:space="preserve">
<path d="M164,55.9v5.4h-3.2v-5.4l-4-7.8h3.5l2.1,4.7l2.1-4.7h3.5L164,55.9z M149.2,39.1l-2.3-4.9h-1.1v4.9h-3.2V25.9h5.2
	c1.3,0,2.4,0.4,3.2,1.2c0.9,0.8,1.3,1.8,1.3,3.1c0,1.6-0.7,2.7-2.2,3.4l2.9,5.5H149.2z M148.6,29.2c-0.3-0.3-0.6-0.4-1-0.4h-1.8v2.7
	h1.8c0.4,0,0.7-0.1,1-0.4c0.3-0.3,0.4-0.6,0.4-1C149,29.8,148.9,29.4,148.6,29.2z M145.6,53.9l3-5.8h3.2v13.2h-3.2V55l-1.9,3.3h-2.1
	l-1.9-3.3v6.3h-3.2V48.1h3.2L145.6,53.9z M136.4,35.3c-0.2,1-0.6,1.8-1.2,2.4c-1,1-2.2,1.5-3.7,1.5s-2.7-0.5-3.7-1.5
	c-0.6-0.6-1-1.4-1.2-2.4c-0.1-0.3-0.1-0.7-0.1-1.1c0-0.5,0-1,0-1.7c0-0.7,0-1.2,0-1.7c0-0.5,0.1-0.8,0.1-1.1c0.2-1,0.6-1.8,1.2-2.4
	c1-1,2.2-1.5,3.7-1.5s2.7,0.5,3.7,1.5c0.6,0.6,1,1.4,1.2,2.4c0,0.3,0.1,0.7,0.1,1.1c0,0.5,0,1,0,1.7c0,0.7,0,1.2,0,1.7
	C136.5,34.7,136.4,35,136.4,35.3z M133.1,30.1c-0.2-0.9-0.8-1.4-1.6-1.4c-0.9,0-1.4,0.5-1.6,1.4c-0.1,0.4-0.1,1.2-0.1,2.4
	c0,1.2,0,2,0.1,2.4c0.2,0.9,0.8,1.4,1.6,1.4c0.8,0,1.4-0.5,1.6-1.4c0.1-0.4,0.1-1.2,0.1-2.4C133.3,31.3,133.2,30.5,133.1,30.1z
	 M133.4,51h-5.7v2.2h4.9v2.9h-4.9v2.3h5.7v2.9h-9V48.1h9V51z M118.4,39.1h-3.2V28.8h-3.2v-2.9h9.7v2.9h-3.2V39.1z M116.7,49.1
	c0.9,0.7,1.5,1.6,1.7,2.8c0.1,0.4,0.1,1.4,0.1,2.9c0,1.5,0,2.4-0.1,2.9c-0.2,1.2-0.8,2.1-1.7,2.8c-0.9,0.6-1.9,0.9-3.2,0.9h-4.9
	V48.1h4.9C114.8,48.1,115.8,48.4,116.7,49.1z M111.9,51v7.4h1.4c0.7,0,1.2-0.2,1.6-0.7c0.2-0.3,0.3-0.8,0.4-1.4v-1.5
	c0-1.6-0.1-2.6-0.4-3c-0.3-0.5-0.9-0.7-1.6-0.7H111.9z M99.3,32.5v6.6H96V25.9h2.8l4.2,6.6v-6.6h3.2v13.2h-2.8L99.3,32.5z
	 M98.8,48.1l4.8,13.2h-3.4l-0.6-2h-4.1l-0.6,2h-3.4l4.8-13.2H98.8z M98.7,56.6l-1.1-3.5l-1.2,3.5H98.7z M81,25.9h9v2.9h-5.7V31h4.9
	v2.9h-4.9v2.3H90v2.9h-9V25.9z M85.9,49.1c0.9,0.7,1.4,1.8,1.6,3.2h-3.3c-0.3-0.9-0.8-1.4-1.7-1.4c-0.6,0-1,0.2-1.3,0.6
	c-0.3,0.4-0.5,1.5-0.5,3.3c0,1.8,0.2,2.8,0.5,3.3c0.3,0.4,0.7,0.6,1.3,0.6c0.9,0,1.4-0.5,1.7-1.4h3.3c-0.2,1.4-0.8,2.4-1.6,3.2
	c-0.9,0.7-2,1.1-3.4,1.1c-1.5,0-2.7-0.5-3.7-1.5c-0.6-0.6-1-1.4-1.2-2.4c0-0.3-0.1-0.7-0.1-1.1c0-0.5,0-1,0-1.7c0-0.7,0-1.2,0-1.7
	c0-0.5,0.1-0.8,0.1-1.1c0.2-1,0.6-1.8,1.2-2.4c1-1,2.2-1.5,3.7-1.5C83.9,48,85.1,48.4,85.9,49.1z M71.4,32.8L69.5,36h-2.1l-1.9-3.3
	v6.3h-3.2V25.9h3.2l3,5.8l3-5.8h3.2v13.2h-3.2V32.8z M49.2,40.3l-5.5,0.1v13.9L27.5,39.7H12.8v-20L0,14.5L30.9,0.6l30.9,12.7
	l-12.8,5.9L49.2,40.3z M19.2,33.3h10.8l7.3,6.6v-5.8l5.5-0.1l-0.1-11.8l-11.4,5.3l-12.1-5V33.3z M31,7.5l-14.9,6.7l15,6.2l14.7-6.8
	L31,7.5z M68.3,48.1l4.8,13.2h-3.4l-0.6-2H65l-0.6,2H61l4.8-13.2H68.3z M68.2,56.6l-1.1-3.5l-1.2,3.5H68.2z"/>
</svg>
