<?xml version="1.0" encoding="utf-8"?>
<!-- Generator: Adobe Illustrator 21.0.0, SVG Export Plug-In . SVG Version: 6.00 Build 0)  -->
<svg version="1.1" id="Layer_1" xmlns="http://www.w3.org/2000/svg" xmlns:xlink="http://www.w3.org/1999/xlink" x="0px" y="0px"
	 viewBox="0 0 46.5 46.5" style="enable-background:new 0 0 46.5 46.5;" xml:space="preserve">
<style type="text/css">
	.st0{fill:#FFFFFF;}
	.st1{fill:#E59A71;}
</style>
<path class="st0" d="M23.3,0.8c12.4,0,22.5,10.1,22.5,22.5S35.7,45.8,23.3,45.8S0.8,35.7,0.8,23.3S10.9,0.8,23.3,0.8z"/>
<path class="st1" d="M35.6,11.9c0,0.2-0.7,5.5-4.4,9.1c-0.6,0.6-2.1,2-3.8,3.5c0,0.1,0.1,0.1,0.1,0.2l1.3,5.8l-2.6,2.6L22.1,29
	c-0.2,0.1-0.3,0.2-0.5,0.3l-0.6,0.3L17,25.4l0.3-0.6c0.1-0.1,0.1-0.3,0.3-0.5l-3.8-3.8l2.6-2.6l5.5,1.3c1.6-1.7,3.1-3.3,3.7-3.9
	c3.7-3.7,8.9-4.4,9.1-4.4l1.1-0.1L35.6,11.9z M26.3,30.6l0.7-0.7L26,25.9c-0.9,0.8-1.7,1.5-2.4,2.1L26.3,30.6z M16.9,19.9l-0.7,0.7
	l2.4,2.4c0.5-0.7,1.2-1.4,1.9-2.2L16.9,19.9z M26.7,16.5c-1.8,1.8-6.2,6.6-7.5,8.6l2.2,2.2c1.9-1.3,6.8-5.8,8.6-7.5
	c2.3-2.3,3.3-5.2,3.6-6.9C32,13.3,29,14.3,26.7,16.5z M27.8,18.6c-0.5-0.5-0.5-1.3,0-1.8c0.5-0.5,1.3-0.5,1.8,0
	c0.5,0.5,0.5,1.3,0,1.8C29,19,28.2,19,27.8,18.6z M14.9,29.9L12,32.8l-0.6-0.6l2.9-2.9L14.9,29.9z M16.1,31l-4.7,4.7l-0.6-0.6
	l4.7-4.7L16.1,31z M17.3,32.2l-1.7,1.7L15,33.3l1.7-1.7L17.3,32.2z M16.2,26.6l3.6,3.6l-1.4,1.1L15.1,28L16.2,26.6z"/>
</svg>
