<?xml version="1.0" encoding="utf-8"?>
<!-- Generator: Adobe Illustrator 21.0.0, SVG Export Plug-In . SVG Version: 6.00 Build 0)  -->
<svg version="1.1" id="Layer_1" xmlns="http://www.w3.org/2000/svg" xmlns:xlink="http://www.w3.org/1999/xlink" x="0px" y="0px"
	 viewBox="0 0 46.5 46.5" style="enable-background:new 0 0 46.5 46.5;" xml:space="preserve">
<style type="text/css">
	.st0{fill:#FFFFFF;}
	.st1{fill:#6FD0EB;}
</style>
<path class="st0" d="M23.3,0.8c12.4,0,22.5,10.1,22.5,22.5S35.7,45.8,23.3,45.8S0.8,35.7,0.8,23.3S10.9,0.8,23.3,0.8z"/>
<path class="st1" d="M34.9,25.1v5.9c0.5,0.2,0.8,0.7,0.8,1.2c0,0.7-0.7,1.4-1.5,1.4c-0.8,0-1.5-0.6-1.5-1.4c0-0.5,0.4-1,0.8-1.2
	v-5.9c-0.5-0.2-0.8-0.7-0.8-1.2c0-0.7,0.7-1.4,1.5-1.4c0.8,0,1.5,0.6,1.5,1.4C35.8,24.4,35.5,24.9,34.9,25.1z M33.7,18
	c-0.2,0-0.3,0-0.4-0.1l-3.6,3.4v10.5l-3.4,3.1c0,0.1,0,0.2,0,0.3c0,0.7-0.7,1.4-1.5,1.4s-1.5-0.6-1.5-1.4s0.7-1.4,1.5-1.4
	c0.2,0,0.4,0,0.6,0.1l2.9-2.7V20.9l3.9-3.8c0-0.1-0.1-0.3-0.1-0.5c0-0.7,0.7-1.4,1.5-1.4c0.8,0,1.5,0.6,1.5,1.4
	C35.2,17.4,34.5,18,33.7,18z M29.8,12.7c-0.2,0-0.4,0-0.5-0.1l-5.1,4.7v11.8l-5.4,5c0,0.1,0.1,0.3,0.1,0.4c0,0.7-0.7,1.4-1.5,1.4
	c-0.8,0-1.5-0.6-1.5-1.4c0-0.7,0.7-1.4,1.5-1.4c0.2,0,0.4,0,0.5,0.1l5.1-4.7V16.7l5.5-5.1c0-0.1-0.1-0.3-0.1-0.4
	c0-0.7,0.7-1.4,1.5-1.4s1.5,0.6,1.5,1.4C31.3,12,30.7,12.7,29.8,12.7z M22.5,12.7c-0.2,0-0.3,0-0.4-0.1L18.5,16v10.5l-3.4,3.1
	c0,0.1,0,0.2,0,0.4c0,0.7-0.7,1.4-1.5,1.4s-1.5-0.6-1.5-1.4c0-0.7,0.7-1.4,1.5-1.4c0.2,0,0.4,0,0.6,0.1l2.9-2.7V15.5l3.9-3.8
	c0-0.1-0.1-0.3-0.1-0.5c0-0.7,0.7-1.4,1.5-1.4c0.8,0,1.5,0.6,1.5,1.4C24,12,23.3,12.7,22.5,12.7z M12.9,15.9v6.7
	c0.5,0.2,0.8,0.7,0.8,1.2c0,0.7-0.7,1.4-1.5,1.4c-0.8,0-1.5-0.6-1.5-1.4c0-0.5,0.4-1,0.8-1.2v-6.7c-0.5-0.2-0.8-0.7-0.8-1.2
	c0-0.7,0.7-1.4,1.5-1.4s1.5,0.6,1.5,1.4C13.8,15.3,13.4,15.7,12.9,15.9z"/>
</svg>
